<?xml version="1.0" standalone="no"?>
<!DOCTYPE svg PUBLIC "-//W3C//DTD SVG 20010904//EN"
 "http://www.w3.org/TR/2001/REC-SVG-20010904/DTD/svg10.dtd">
<svg version="1.0" xmlns="http://www.w3.org/2000/svg"
 width="512.000000pt" height="512.000000pt" viewBox="0 0 512.000000 512.000000"
 preserveAspectRatio="xMidYMid meet">

<g transform="translate(0.000000,512.000000) scale(0.100000,-0.100000)"
fill="#000000" stroke="none">
<path d="M2098 5099 c-50 -26 -67 -55 -89 -147 -21 -87 -19 -103 18 -132 25
-19 25 -21 14 -77 -23 -116 -29 -131 -60 -138 -34 -7 -57 -30 -66 -66 -6 -23
-14 -28 -53 -34 -76 -10 -261 -62 -337 -93 -177 -73 -259 -157 -258 -264 1
-118 120 -216 351 -292 l83 -28 -40 -29 c-129 -93 -115 -312 26 -440 22 -20
49 -41 59 -47 10 -6 17 -13 14 -15 -3 -3 -128 -44 -279 -91 -182 -57 -282 -93
-298 -108 -55 -51 -51 -142 8 -192 16 -14 115 -86 219 -161 105 -75 190 -140
190 -144 0 -4 -15 -12 -32 -19 -18 -7 -63 -34 -100 -62 -87 -64 -160 -166
-193 -272 -23 -74 -25 -93 -25 -292 l0 -213 -60 -6 c-108 -12 -175 -64 -199
-154 -10 -37 -1 -106 74 -580 47 -296 88 -550 91 -565 5 -25 3 -28 -21 -28
-43 0 -93 -27 -115 -62 -15 -25 -20 -50 -20 -110 0 -42 4 -88 9 -101 16 -40
73 -99 116 -118 38 -18 107 -19 1433 -19 1526 0 1430 -4 1495 58 50 47 67 93
67 179 0 61 -5 85 -20 111 -22 35 -72 62 -115 62 -24 0 -26 3 -21 27 3 16 44
270 91 566 75 474 84 543 74 580 -24 90 -91 142 -199 154 l-60 6 0 213 c0 199
-2 218 -25 292 -33 106 -106 208 -193 272 -37 28 -82 55 -99 62 -18 7 -33 15
-33 19 0 5 71 58 158 120 243 174 273 198 289 237 18 44 10 92 -23 131 -19 23
-48 37 -123 60 -55 17 -107 31 -116 31 -29 0 -65 -46 -65 -83 0 -42 15 -56 92
-82 l60 -21 -174 -124 c-271 -194 -340 -253 -488 -420 -56 -63 -130 -140 -165
-172 -70 -62 -194 -153 -200 -147 -2 3 46 94 107 204 138 247 143 261 123 318
-8 23 -15 65 -15 94 l0 51 88 89 c70 69 97 106 130 172 23 46 42 89 42 96 0
10 15 9 63 -6 111 -34 157 -19 157 51 0 45 -25 75 -71 85 -26 6 -42 25 -20 25
16 0 103 83 127 122 34 53 58 152 51 209 -9 76 -53 145 -110 176 -15 8 -2 16
74 42 235 82 341 171 342 289 1 142 -145 247 -461 328 -73 19 -144 34 -157 34
-28 0 -21 -23 -86 273 -29 130 -60 251 -70 267 -10 16 -38 39 -61 51 l-43 22
-135 -19 c-170 -24 -402 -24 -553 -1 -133 21 -143 21 -189 -4z m-231 -762 c-3
-8 -13 -52 -23 -98 -33 -160 -2 -207 172 -257 142 -41 242 -59 408 -73 214
-18 478 11 694 77 101 31 133 51 156 98 21 44 20 82 -4 181 -10 44 -17 81 -15
83 9 10 250 -64 320 -97 94 -46 130 -79 120 -111 -12 -36 -106 -88 -261 -144
-230 -82 -359 -151 -556 -297 -107 -80 -182 -104 -318 -104 -136 0 -211 24
-318 104 -197 146 -326 215 -556 297 -155 56 -249 108 -261 144 -5 15 0 29 17
47 35 38 172 100 293 132 127 34 139 36 132 18z m-32 -724 c3 -43 8 -99 11
-125 7 -55 -2 -60 -47 -27 -62 44 -94 165 -55 208 12 13 31 21 52 21 l32 0 7
-77z m1541 56 c39 -43 7 -164 -55 -208 -45 -33 -54 -28 -47 27 3 26 8 82 11
125 l7 77 32 0 c21 0 40 -8 52 -21z m-1274 -61 c53 -40 105 -78 115 -85 14
-10 -5 -12 -98 -12 l-116 -1 -7 38 c-8 52 -8 132 2 132 4 0 51 -33 104 -72z
m1028 25 c0 -27 -3 -65 -6 -85 l-7 -38 -116 1 c-93 0 -112 2 -98 12 10 7 62
45 115 85 53 39 100 72 104 72 5 0 8 -21 8 -47z m-528 -220 c14 -13 18 -31 18
-87 0 -78 -17 -116 -50 -116 -32 0 -67 -21 -79 -47 -16 -34 -14 -47 10 -77 38
-49 145 -28 211 41 40 42 58 94 58 168 l0 65 170 0 170 0 0 -35 c0 -190 -139
-369 -376 -482 -74 -36 -85 -38 -174 -38 -89 0 -100 2 -174 38 -222 106 -356
265 -372 444 l-7 72 221 3 220 3 44 32 c49 35 83 41 110 16z m-657 -400 c15
-26 66 -85 112 -131 83 -83 83 -83 83 -135 0 -29 -7 -71 -15 -94 -20 -57 -15
-69 123 -318 61 -110 109 -202 107 -204 -6 -5 -119 78 -192 141 -34 29 -111
107 -170 173 -164 183 -219 230 -491 425 -98 70 -168 126 -160 129 7 3 130 42
273 86 l259 82 22 -53 c11 -28 34 -74 49 -101z m460 -341 c121 -43 251 -33
396 32 12 5 18 -4 28 -46 l11 -54 -137 -252 c-76 -138 -140 -252 -143 -252 -3
0 -67 114 -143 252 l-137 252 11 54 c10 42 16 51 28 46 9 -4 48 -19 86 -32z
m1563 -1104 c7 -7 12 -24 12 -39 0 -14 -38 -267 -85 -560 -67 -419 -89 -537
-102 -546 -13 -10 -218 -13 -945 -13 -915 0 -928 0 -948 -20 -27 -27 -27 -83
0 -110 20 -20 33 -20 1045 -20 l1025 0 0 -39 c0 -77 117 -71 -1410 -71 -1527
0 -1410 -6 -1410 71 l0 39 240 0 241 0 24 25 c32 31 32 69 0 100 -23 24 -29
25 -168 25 -99 0 -148 4 -160 12 -13 10 -35 125 -102 543 -47 292 -86 545 -87
563 -1 20 5 38 13 43 23 14 2802 12 2817 -3z"/>
<path d="M2465 1267 c-91 -30 -170 -98 -201 -172 -38 -93 -6 -226 72 -294 72
-64 109 -76 224 -76 90 0 111 3 147 23 66 35 110 78 139 137 88 181 -50 381
-270 392 -41 1 -88 -3 -111 -10z m171 -156 c77 -35 104 -103 69 -171 -34 -65
-155 -91 -235 -50 -68 35 -92 120 -48 175 27 34 92 65 138 65 19 0 53 -9 76
-19z"/>
</g>
</svg>
